<svg width="512" height="518" viewBox="0 0 512 518" fill="none" xmlns="http://www.w3.org/2000/svg">
<g clip-path="url(#clip0_126_3)">
<path d="M192.064 178.062C192.064 190.942 187.007 203.294 178.005 212.401C169.003 221.509 156.794 226.625 144.064 226.625C131.334 226.625 119.125 221.509 110.123 212.401C101.121 203.294 96.064 190.942 96.064 178.062C96.064 165.183 101.121 152.831 110.123 143.724C119.125 134.616 131.334 129.5 144.064 129.5C156.794 129.5 169.003 134.616 178.005 143.724C187.007 152.831 192.064 165.183 192.064 178.062Z" fill="black"/>
<path d="M64.064 32.375C47.0901 32.375 30.8115 39.1969 18.8092 51.3398C6.80683 63.4828 0.0639954 79.9522 0.0639954 97.125V420.875C0.0639954 438.048 6.80683 454.517 18.8092 466.66C30.8115 478.803 47.0901 485.625 64.064 485.625H448.064C465.038 485.625 481.317 478.803 493.319 466.66C505.321 454.517 512.064 438.048 512.064 420.875V97.125C512.064 79.9522 505.321 63.4828 493.319 51.3398C481.317 39.1969 465.038 32.375 448.064 32.375H64.064ZM448.064 64.75C456.551 64.75 464.69 68.1609 470.691 74.2324C476.693 80.3039 480.064 88.5386 480.064 97.125V307.562L359.2 244.528C356.199 243.008 352.801 242.48 349.488 243.02C346.174 243.561 343.113 245.141 340.736 247.539L222.016 367.65L136.896 310.282C133.823 308.212 130.136 307.281 126.462 307.647C122.788 308.013 119.351 309.653 116.736 312.289L32.064 388.5V97.125C32.064 88.5386 35.4354 80.3039 41.4366 74.2324C47.4377 68.1609 55.5771 64.75 64.064 64.75H448.064Z" fill="black"/>
<path d="M112.295 421.841C112.114 420.008 111.333 418.583 109.955 417.568C108.576 416.553 106.705 416.045 104.341 416.045C102.735 416.045 101.379 416.273 100.273 416.727C99.1667 417.167 98.3182 417.78 97.7273 418.568C97.1515 419.356 96.8636 420.25 96.8636 421.25C96.8333 422.083 97.0076 422.811 97.3864 423.432C97.7803 424.053 98.3182 424.591 99 425.045C99.6818 425.485 100.47 425.871 101.364 426.205C102.258 426.523 103.212 426.795 104.227 427.023L108.409 428.023C110.439 428.477 112.303 429.083 114 429.841C115.697 430.598 117.167 431.53 118.409 432.636C119.652 433.742 120.614 435.045 121.295 436.545C121.992 438.045 122.348 439.765 122.364 441.705C122.348 444.553 121.621 447.023 120.182 449.114C118.758 451.189 116.697 452.803 114 453.955C111.318 455.091 108.083 455.659 104.295 455.659C100.538 455.659 97.2652 455.083 94.4773 453.932C91.7045 452.78 89.5379 451.076 87.9773 448.818C86.4318 446.545 85.6212 443.735 85.5455 440.386H95.0682C95.1742 441.947 95.6212 443.25 96.4091 444.295C97.2121 445.326 98.2803 446.106 99.6136 446.636C100.962 447.152 102.485 447.409 104.182 447.409C105.848 447.409 107.295 447.167 108.523 446.682C109.765 446.197 110.727 445.523 111.409 444.659C112.091 443.795 112.432 442.803 112.432 441.682C112.432 440.636 112.121 439.758 111.5 439.045C110.894 438.333 110 437.727 108.818 437.227C107.652 436.727 106.22 436.273 104.523 435.864L99.4545 434.591C95.5303 433.636 92.4318 432.144 90.1591 430.114C87.8864 428.083 86.7576 425.348 86.7727 421.909C86.7576 419.091 87.5076 416.629 89.0227 414.523C90.553 412.417 92.6515 410.773 95.3182 409.591C97.9848 408.409 101.015 407.818 104.409 407.818C107.864 407.818 110.879 408.409 113.455 409.591C116.045 410.773 118.061 412.417 119.5 414.523C120.939 416.629 121.682 419.068 121.727 421.841H112.295ZM128.801 455V420.091H138.483V455H128.801ZM133.665 415.591C132.225 415.591 130.991 415.114 129.96 414.159C128.945 413.189 128.438 412.03 128.438 410.682C128.438 409.348 128.945 408.205 129.96 407.25C130.991 406.28 132.225 405.795 133.665 405.795C135.104 405.795 136.331 406.28 137.347 407.25C138.377 408.205 138.892 409.348 138.892 410.682C138.892 412.03 138.377 413.189 137.347 414.159C136.331 415.114 135.104 415.591 133.665 415.591ZM155.92 434.818V455H146.239V420.091H155.466V426.25H155.875C156.648 424.22 157.943 422.614 159.761 421.432C161.58 420.235 163.784 419.636 166.375 419.636C168.799 419.636 170.913 420.167 172.716 421.227C174.519 422.288 175.92 423.803 176.92 425.773C177.92 427.727 178.42 430.061 178.42 432.773V455H168.739V434.5C168.754 432.364 168.208 430.697 167.102 429.5C165.996 428.288 164.473 427.682 162.534 427.682C161.231 427.682 160.08 427.962 159.08 428.523C158.095 429.083 157.322 429.902 156.761 430.977C156.216 432.038 155.936 433.318 155.92 434.818ZM210.886 408.455V455H201.045V408.455H210.886ZM218.801 455V420.091H228.028V426.25H228.438C229.165 424.205 230.377 422.591 232.074 421.409C233.771 420.227 235.801 419.636 238.165 419.636C240.559 419.636 242.597 420.235 244.278 421.432C245.96 422.614 247.081 424.22 247.642 426.25H248.006C248.718 424.25 250.006 422.652 251.869 421.455C253.748 420.242 255.968 419.636 258.528 419.636C261.786 419.636 264.43 420.674 266.46 422.75C268.506 424.811 269.528 427.735 269.528 431.523V455H259.869V433.432C259.869 431.492 259.354 430.038 258.324 429.068C257.294 428.098 256.006 427.614 254.46 427.614C252.703 427.614 251.331 428.174 250.347 429.295C249.362 430.402 248.869 431.864 248.869 433.682V455H239.483V433.227C239.483 431.515 238.991 430.152 238.006 429.136C237.036 428.121 235.756 427.614 234.165 427.614C233.089 427.614 232.119 427.886 231.256 428.432C230.407 428.962 229.733 429.712 229.233 430.682C228.733 431.636 228.483 432.758 228.483 434.045V455H218.801ZM287.131 455.659C284.903 455.659 282.919 455.273 281.176 454.5C279.434 453.712 278.055 452.553 277.04 451.023C276.04 449.477 275.54 447.553 275.54 445.25C275.54 443.311 275.896 441.682 276.608 440.364C277.32 439.045 278.29 437.985 279.517 437.182C280.744 436.379 282.138 435.773 283.699 435.364C285.275 434.955 286.926 434.667 288.653 434.5C290.684 434.288 292.32 434.091 293.562 433.909C294.805 433.712 295.706 433.424 296.267 433.045C296.828 432.667 297.108 432.106 297.108 431.364V431.227C297.108 429.788 296.653 428.674 295.744 427.886C294.85 427.098 293.578 426.705 291.926 426.705C290.184 426.705 288.797 427.091 287.767 427.864C286.737 428.621 286.055 429.576 285.722 430.727L276.767 430C277.222 427.879 278.116 426.045 279.449 424.5C280.782 422.939 282.502 421.742 284.608 420.909C286.729 420.061 289.184 419.636 291.972 419.636C293.911 419.636 295.767 419.864 297.54 420.318C299.328 420.773 300.911 421.477 302.29 422.432C303.684 423.386 304.782 424.614 305.585 426.114C306.388 427.598 306.79 429.379 306.79 431.455V455H297.608V450.159H297.335C296.775 451.25 296.025 452.212 295.085 453.045C294.146 453.864 293.017 454.508 291.699 454.977C290.381 455.432 288.858 455.659 287.131 455.659ZM289.903 448.977C291.328 448.977 292.585 448.697 293.676 448.136C294.767 447.561 295.623 446.788 296.244 445.818C296.866 444.848 297.176 443.75 297.176 442.523V438.818C296.873 439.015 296.456 439.197 295.926 439.364C295.411 439.515 294.828 439.659 294.176 439.795C293.525 439.917 292.873 440.03 292.222 440.136C291.57 440.227 290.979 440.311 290.449 440.386C289.313 440.553 288.32 440.818 287.472 441.182C286.623 441.545 285.964 442.038 285.494 442.659C285.025 443.265 284.79 444.023 284.79 444.932C284.79 446.25 285.267 447.258 286.222 447.955C287.191 448.636 288.419 448.977 289.903 448.977ZM330.028 468.818C326.892 468.818 324.203 468.386 321.96 467.523C319.733 466.674 317.96 465.515 316.642 464.045C315.324 462.576 314.468 460.924 314.074 459.091L323.028 457.886C323.301 458.583 323.733 459.235 324.324 459.841C324.915 460.447 325.695 460.932 326.665 461.295C327.65 461.674 328.847 461.864 330.256 461.864C332.362 461.864 334.097 461.348 335.46 460.318C336.839 459.303 337.528 457.598 337.528 455.205V448.818H337.119C336.695 449.788 336.059 450.705 335.21 451.568C334.362 452.432 333.271 453.136 331.938 453.682C330.604 454.227 329.013 454.5 327.165 454.5C324.544 454.5 322.157 453.894 320.006 452.682C317.869 451.455 316.165 449.583 314.892 447.068C313.634 444.538 313.006 441.341 313.006 437.477C313.006 433.523 313.65 430.22 314.938 427.568C316.225 424.917 317.938 422.932 320.074 421.614C322.225 420.295 324.581 419.636 327.142 419.636C329.097 419.636 330.733 419.97 332.051 420.636C333.369 421.288 334.43 422.106 335.233 423.091C336.051 424.061 336.68 425.015 337.119 425.955H337.483V420.091H347.097V455.341C347.097 458.311 346.369 460.795 344.915 462.795C343.46 464.795 341.445 466.295 338.869 467.295C336.309 468.311 333.362 468.818 330.028 468.818ZM330.233 447.227C331.794 447.227 333.112 446.841 334.188 446.068C335.278 445.28 336.112 444.159 336.688 442.705C337.278 441.235 337.574 439.477 337.574 437.432C337.574 435.386 337.286 433.614 336.71 432.114C336.134 430.598 335.301 429.424 334.21 428.591C333.119 427.758 331.794 427.341 330.233 427.341C328.642 427.341 327.301 427.773 326.21 428.636C325.119 429.485 324.294 430.667 323.733 432.182C323.172 433.697 322.892 435.447 322.892 437.432C322.892 439.447 323.172 441.189 323.733 442.659C324.309 444.114 325.134 445.242 326.21 446.045C327.301 446.833 328.642 447.227 330.233 447.227ZM370.71 455.682C367.119 455.682 364.028 454.955 361.438 453.5C358.862 452.03 356.877 449.955 355.483 447.273C354.089 444.576 353.392 441.386 353.392 437.705C353.392 434.114 354.089 430.962 355.483 428.25C356.877 425.538 358.839 423.424 361.369 421.909C363.915 420.394 366.9 419.636 370.324 419.636C372.627 419.636 374.771 420.008 376.756 420.75C378.756 421.477 380.498 422.576 381.983 424.045C383.483 425.515 384.65 427.364 385.483 429.591C386.316 431.803 386.733 434.394 386.733 437.364V440.023H357.256V434.023H377.619C377.619 432.629 377.316 431.394 376.71 430.318C376.104 429.242 375.263 428.402 374.188 427.795C373.127 427.174 371.892 426.864 370.483 426.864C369.013 426.864 367.71 427.205 366.574 427.886C365.453 428.553 364.574 429.455 363.938 430.591C363.301 431.712 362.975 432.962 362.96 434.341V440.045C362.96 441.773 363.278 443.265 363.915 444.523C364.566 445.78 365.483 446.75 366.665 447.432C367.847 448.114 369.248 448.455 370.869 448.455C371.945 448.455 372.93 448.303 373.824 448C374.718 447.697 375.483 447.242 376.119 446.636C376.756 446.03 377.241 445.288 377.574 444.409L386.528 445C386.074 447.152 385.142 449.03 383.733 450.636C382.339 452.227 380.536 453.47 378.324 454.364C376.127 455.242 373.589 455.682 370.71 455.682ZM402.733 434.818V455H393.051V420.091H402.278V426.25H402.688C403.46 424.22 404.756 422.614 406.574 421.432C408.392 420.235 410.597 419.636 413.188 419.636C415.612 419.636 417.725 420.167 419.528 421.227C421.331 422.288 422.733 423.803 423.733 425.773C424.733 427.727 425.233 430.061 425.233 432.773V455H415.551V434.5C415.566 432.364 415.021 430.697 413.915 429.5C412.809 428.288 411.286 427.682 409.347 427.682C408.044 427.682 406.892 427.962 405.892 428.523C404.907 429.083 404.134 429.902 403.574 430.977C403.028 432.038 402.748 433.318 402.733 434.818Z" fill="white"/>
</g>
<defs>
<clipPath id="clip0_126_3">
<rect width="512" height="518" fill="white"/>
</clipPath>
</defs>
</svg>
